<svg xmlns="http://www.w3.org/2000/svg" viewBox="0 0 64 64" width="64" height="64"><title>Silence</title><g id="pip-silence"><rect x="2.5" y="2.5" width="59" height="59" rx="15" fill="#F2C74422" stroke="#F2C744" stroke-width="3"></rect><g transform="translate(14.5,10) scale(0.55)"><g fill="#14121F" stroke="#14121F" stroke-width="10" stroke-linecap="round" stroke-linejoin="round"><path fill="none" d="M16 24v16"></path><path fill="none" d="M26 20a16 16 0 0 1 0 24"></path><path fill="none" d="M36 26a9 9 0 0 1 0 12"></path><path fill="none" d="M12 54L52 10"></path></g><g fill="#7A3FA0" stroke="#7A3FA0" stroke-width="3.5" stroke-linecap="round" stroke-linejoin="round"><path fill="none" d="M16 24v16"></path><path fill="none" d="M26 20a16 16 0 0 1 0 24"></path><path fill="none" d="M36 26a9 9 0 0 1 0 12"></path><path fill="none" d="M12 54L52 10"></path></g></g><rect x="45" y="50.5" width="12" height="5" rx="2.5" fill="#F2C744" stroke="#14121F" stroke-width="2.5"></rect></g></svg>