<svg xmlns="http://www.w3.org/2000/svg" viewBox="0 0 860 2084" width="860" height="2084">
  <defs><radialGradient id="inner-earth" cx="50%" cy="34%" r="72%"><stop offset="55%" stop-color="#2C4620" stop-opacity="0"></stop><stop offset="100%" stop-color="#2C4620" stop-opacity=".55"></stop></radialGradient><radialGradient id="inner-air" cx="50%" cy="34%" r="72%"><stop offset="55%" stop-color="#4A7383" stop-opacity="0"></stop><stop offset="100%" stop-color="#4A7383" stop-opacity=".55"></stop></radialGradient><radialGradient id="inner-fire" cx="50%" cy="34%" r="72%"><stop offset="55%" stop-color="#8C2A12" stop-opacity="0"></stop><stop offset="100%" stop-color="#8C2A12" stop-opacity=".55"></stop></radialGradient><radialGradient id="inner-water" cx="50%" cy="34%" r="72%"><stop offset="55%" stop-color="#164A6E" stop-opacity="0"></stop><stop offset="100%" stop-color="#164A6E" stop-opacity=".55"></stop></radialGradient><radialGradient id="inner-light" cx="50%" cy="34%" r="72%"><stop offset="55%" stop-color="#8A6A15" stop-opacity="0"></stop><stop offset="100%" stop-color="#8A6A15" stop-opacity=".55"></stop></radialGradient><radialGradient id="inner-dark" cx="50%" cy="34%" r="72%"><stop offset="55%" stop-color="#42215B" stop-opacity="0"></stop><stop offset="100%" stop-color="#42215B" stop-opacity=".55"></stop></radialGradient><radialGradient id="inner-slash" cx="50%" cy="34%" r="72%"><stop offset="55%" stop-color="#77161C" stop-opacity="0"></stop><stop offset="100%" stop-color="#77161C" stop-opacity=".55"></stop></radialGradient><radialGradient id="inner-pierce" cx="50%" cy="34%" r="72%"><stop offset="55%" stop-color="#1F3280" stop-opacity="0"></stop><stop offset="100%" stop-color="#1F3280" stop-opacity=".55"></stop></radialGradient><radialGradient id="inner-crush" cx="50%" cy="34%" r="72%"><stop offset="55%" stop-color="#6E4317" stop-opacity="0"></stop><stop offset="100%" stop-color="#6E4317" stop-opacity=".55"></stop></radialGradient></defs>
  <rect width="860" height="2084" fill="#0E0C17"></rect>
  <text x="40" y="52" font-family="&#39;Chakra Petch&#39;,sans-serif" font-size="30" font-weight="700" letter-spacing="6" fill="#F4EFE4">LMNTLZ · HERO EMBLEMS</text>
  <text x="40" y="76" font-family="monospace" font-size="12" letter-spacing="2" fill="#8E87A8">27 heroes · 9 forces · hex medallion, shared stroke language, nine-token palette only</text>
  <text x="40" y="214" font-family="&#39;Chakra Petch&#39;,sans-serif" font-size="20" font-weight="700" letter-spacing="3" fill="#4E7C3A">EARTH</text><text x="40" y="236" font-family="monospace" font-size="11" fill="#6E6690">ARCANE · RING</text><line x1="40" y1="316" x2="820" y2="316" stroke="#241F38" stroke-width="1"></line><g transform="translate(231,126)"><g id="earth-bramwen"><polygon points="64,6 114,35 114,93 64,122 14,93 14,35" fill="#4E7C3A"></polygon><polygon points="64,6 114,35 114,93 64,122 14,93 14,35" fill="url(#inner-earth)"></polygon><polygon points="64,6 114,35 114,93 64,122 14,93 14,35" fill="none" stroke="#C9922E" stroke-width="4"></polygon><rect x="52" y="30" width="24" height="58" rx="4" fill="#F2EDDD"></rect><polyline points="64,34 57,50 69,58 59,72 66,84" fill="none" stroke="#C9922E" stroke-width="4" stroke-linejoin="round" stroke-linecap="round"></polyline><circle cx="94" cy="84" r="13" fill="#2C4620" opacity=".85"></circle><rect x="90" y="80" width="8" height="8" transform="rotate(45 94 84)" fill="#C9922E"></rect></g></g><text x="295" y="274" text-anchor="middle" font-family="&#39;Chakra Petch&#39;,sans-serif" font-size="15" font-weight="600" fill="#F4EFE4">BRAMWEN</text><text x="295" y="292" text-anchor="middle" font-family="monospace" font-size="10" fill="#8E87A8">the Slow Wrath</text><g transform="translate(441,126)"><g id="earth-ossic"><polygon points="64,6 114,35 114,93 64,122 14,93 14,35" fill="#4E7C3A"></polygon><polygon points="64,6 114,35 114,93 64,122 14,93 14,35" fill="url(#inner-earth)"></polygon><polygon points="64,6 114,35 114,93 64,122 14,93 14,35" fill="none" stroke="#C9922E" stroke-width="4"></polygon><rect x="42" y="58" width="15" height="32" rx="3" fill="#F2EDDD"></rect><path d="M78 90 V54 a11 11 0 0 0 -22 0" stroke="#F2EDDD" stroke-width="9" fill="none" stroke-linecap="round"></path><circle cx="56" cy="48" r="6" fill="#C9922E"></circle><circle cx="94" cy="84" r="13" fill="#2C4620" opacity=".85"></circle><rect x="90" y="80" width="8" height="8" transform="rotate(45 94 84)" fill="#C9922E"></rect></g></g><text x="505" y="274" text-anchor="middle" font-family="&#39;Chakra Petch&#39;,sans-serif" font-size="15" font-weight="600" fill="#F4EFE4">OSSIC</text><text x="505" y="292" text-anchor="middle" font-family="monospace" font-size="10" fill="#8E87A8">Keeper of Bones</text><g transform="translate(651,126)"><g id="earth-terragosa"><polygon points="64,6 114,35 114,93 64,122 14,93 14,35" fill="#4E7C3A"></polygon><polygon points="64,6 114,35 114,93 64,122 14,93 14,35" fill="url(#inner-earth)"></polygon><polygon points="64,6 114,35 114,93 64,122 14,93 14,35" fill="none" stroke="#C9922E" stroke-width="4"></polygon><path d="M50 90 L58 62 L50 52 M58 62 L70 48 M78 90 L71 62 L79 52 M71 62 L60 46" stroke="#F2EDDD" stroke-width="6" fill="none" stroke-linecap="round"></path><circle cx="64" cy="36" r="8" fill="#C9922E"></circle><circle cx="94" cy="84" r="13" fill="#2C4620" opacity=".85"></circle><rect x="90" y="80" width="8" height="8" transform="rotate(45 94 84)" fill="#C9922E"></rect></g></g><text x="715" y="274" text-anchor="middle" font-family="&#39;Chakra Petch&#39;,sans-serif" font-size="15" font-weight="600" fill="#F4EFE4">TERRAGOSA</text><text x="715" y="292" text-anchor="middle" font-family="monospace" font-size="10" fill="#8E87A8">the Green Crown</text><text x="40" y="428" font-family="&#39;Chakra Petch&#39;,sans-serif" font-size="20" font-weight="700" letter-spacing="3" fill="#8FCFE0">AIR</text><text x="40" y="450" font-family="monospace" font-size="11" fill="#6E6690">ARCANE · RING</text><line x1="40" y1="530" x2="820" y2="530" stroke="#241F38" stroke-width="1"></line><g transform="translate(231,340)"><g id="air-zephyrine"><polygon points="64,6 114,35 114,93 64,122 14,93 14,35" fill="#8FCFE0"></polygon><polygon points="64,6 114,35 114,93 64,122 14,93 14,35" fill="url(#inner-air)"></polygon><polygon points="64,6 114,35 114,93 64,122 14,93 14,35" fill="none" stroke="#4A7383" stroke-width="4"></polygon><path fill-rule="evenodd" d="M64 60 m-32 0 a32 32 0 1 0 64 0 a32 32 0 1 0 -64 0 z M74 58 m-24 0 a24 24 0 1 0 48 0 a24 24 0 1 0 -48 0 z" fill="#14121F"></path><path d="M86 92 q-16 7 -30 -1" stroke="#4A7383" stroke-width="5" fill="none" stroke-linecap="round"></path><circle cx="94" cy="84" r="13" fill="#4A7383" opacity=".85"></circle><rect x="88" y="80" width="12" height="2.4" rx="1.2" fill="#4A7383"></rect><rect x="89.5" y="83.5" width="9" height="2.4" rx="1.2" fill="#4A7383"></rect><rect x="91" y="87" width="6" height="2.4" rx="1.2" fill="#4A7383"></rect></g></g><text x="295" y="488" text-anchor="middle" font-family="&#39;Chakra Petch&#39;,sans-serif" font-size="15" font-weight="600" fill="#F4EFE4">ZEPHYRINE</text><text x="295" y="506" text-anchor="middle" font-family="monospace" font-size="10" fill="#8E87A8">Thin Blade of Wind</text><g transform="translate(441,340)"><g id="air-cirrolan"><polygon points="64,6 114,35 114,93 64,122 14,93 14,35" fill="#8FCFE0"></polygon><polygon points="64,6 114,35 114,93 64,122 14,93 14,35" fill="url(#inner-air)"></polygon><polygon points="64,6 114,35 114,93 64,122 14,93 14,35" fill="none" stroke="#4A7383" stroke-width="4"></polygon><path d="M46 50 a12 12 0 0 1 12 -12 a16 16 0 0 1 30 5 a10 10 0 0 1 -3 19 H58 a12 12 0 0 1 -12 -12 z" fill="#14121F"></path><g transform="rotate(-28 48 86)"><ellipse cx="48" cy="86" rx="6" ry="14" fill="#4A7383"></ellipse><line x1="48" y1="72" x2="48" y2="102" stroke="#14121F" stroke-width="2.5" stroke-linecap="round"></line></g><circle cx="94" cy="84" r="13" fill="#4A7383" opacity=".85"></circle><rect x="88" y="80" width="12" height="2.4" rx="1.2" fill="#4A7383"></rect><rect x="89.5" y="83.5" width="9" height="2.4" rx="1.2" fill="#4A7383"></rect><rect x="91" y="87" width="6" height="2.4" rx="1.2" fill="#4A7383"></rect></g></g><text x="505" y="488" text-anchor="middle" font-family="&#39;Chakra Petch&#39;,sans-serif" font-size="15" font-weight="600" fill="#F4EFE4">CIRROLAN</text><text x="505" y="506" text-anchor="middle" font-family="monospace" font-size="10" fill="#8E87A8">Whisper of the High Reach</text><g transform="translate(651,340)"><g id="air-vael"><polygon points="64,6 114,35 114,93 64,122 14,93 14,35" fill="#8FCFE0"></polygon><polygon points="64,6 114,35 114,93 64,122 14,93 14,35" fill="url(#inner-air)"></polygon><polygon points="64,6 114,35 114,93 64,122 14,93 14,35" fill="none" stroke="#4A7383" stroke-width="4"></polygon><polygon points="38,38 64,70 90,38 90,54 64,86 38,54" fill="#14121F"></polygon><polygon points="62,30 76,30 67,48 79,48 56,84 63,56 53,56" fill="#4A7383"></polygon><circle cx="94" cy="84" r="13" fill="#4A7383" opacity=".85"></circle><rect x="88" y="80" width="12" height="2.4" rx="1.2" fill="#4A7383"></rect><rect x="89.5" y="83.5" width="9" height="2.4" rx="1.2" fill="#4A7383"></rect><rect x="91" y="87" width="6" height="2.4" rx="1.2" fill="#4A7383"></rect></g></g><text x="715" y="488" text-anchor="middle" font-family="&#39;Chakra Petch&#39;,sans-serif" font-size="15" font-weight="600" fill="#F4EFE4">VAEL</text><text x="715" y="506" text-anchor="middle" font-family="monospace" font-size="10" fill="#8E87A8">the Falling Sky</text><text x="40" y="642" font-family="&#39;Chakra Petch&#39;,sans-serif" font-size="20" font-weight="700" letter-spacing="3" fill="#E8552B">FIRE</text><text x="40" y="664" font-family="monospace" font-size="11" fill="#6E6690">ARCANE · RING</text><line x1="40" y1="744" x2="820" y2="744" stroke="#241F38" stroke-width="1"></line><g transform="translate(231,554)"><g id="fire-ember-saelith"><polygon points="64,6 114,35 114,93 64,122 14,93 14,35" fill="#E8552B"></polygon><polygon points="64,6 114,35 114,93 64,122 14,93 14,35" fill="url(#inner-fire)"></polygon><polygon points="64,6 114,35 114,93 64,122 14,93 14,35" fill="none" stroke="#FFB347" stroke-width="4"></polygon><path d="M38 60 q2 30 26 32 q24 -2 26 -32" stroke="#14121F" stroke-width="8" fill="none" stroke-linecap="round"></path><path d="M64 22 q7 16 13 24 a15 15 0 0 1 -26 0 q6 -8 13 -24 z" fill="#FFB347"></path><path d="M64 40 q4 9 4 13 a5 5 0 0 1 -9 0 q0 -4 5 -13 z" fill="#E8552B"></path><circle cx="94" cy="84" r="13" fill="#8C2A12" opacity=".85"></circle><polygon points="94,78 100,90 88,90" fill="#FFB347"></polygon></g></g><text x="295" y="702" text-anchor="middle" font-family="&#39;Chakra Petch&#39;,sans-serif" font-size="15" font-weight="600" fill="#F4EFE4">EMBER SAELITH</text><text x="295" y="720" text-anchor="middle" font-family="monospace" font-size="10" fill="#8E87A8">the First Spark</text><g transform="translate(441,554)"><g id="fire-pyrrhic"><polygon points="64,6 114,35 114,93 64,122 14,93 14,35" fill="#E8552B"></polygon><polygon points="64,6 114,35 114,93 64,122 14,93 14,35" fill="url(#inner-fire)"></polygon><polygon points="64,6 114,35 114,93 64,122 14,93 14,35" fill="none" stroke="#FFB347" stroke-width="4"></polygon><polygon points="64,26 85,44 78,90 50,90 43,44" fill="#14121F"></polygon><path d="M64 32 v18 M56 56 l7 10 -6 12 M74 58 l-6 10 6 12" stroke="#FFB347" stroke-width="4" fill="none" stroke-linecap="round"></path><circle cx="94" cy="84" r="13" fill="#8C2A12" opacity=".85"></circle><polygon points="94,78 100,90 88,90" fill="#FFB347"></polygon></g></g><text x="505" y="702" text-anchor="middle" font-family="&#39;Chakra Petch&#39;,sans-serif" font-size="15" font-weight="600" fill="#F4EFE4">PYRRHIC</text><text x="505" y="720" text-anchor="middle" font-family="monospace" font-size="10" fill="#8E87A8">the Glad Ruin</text><g transform="translate(651,554)"><g id="fire-cindara"><polygon points="64,6 114,35 114,93 64,122 14,93 14,35" fill="#E8552B"></polygon><polygon points="64,6 114,35 114,93 64,122 14,93 14,35" fill="url(#inner-fire)"></polygon><polygon points="64,6 114,35 114,93 64,122 14,93 14,35" fill="none" stroke="#FFB347" stroke-width="4"></polygon><circle cx="64" cy="76" r="20" fill="none" stroke="#14121F" stroke-width="8"></circle><circle cx="64" cy="76" r="5" fill="#FFB347"></circle><path d="M52 48 q7 -8 0 -18 M64 44 q7 -8 0 -18 M76 48 q7 -8 0 -18" stroke="#FFB347" stroke-width="4" fill="none" stroke-linecap="round"></path><circle cx="94" cy="84" r="13" fill="#8C2A12" opacity=".85"></circle><polygon points="94,78 100,90 88,90" fill="#FFB347"></polygon></g></g><text x="715" y="702" text-anchor="middle" font-family="&#39;Chakra Petch&#39;,sans-serif" font-size="15" font-weight="600" fill="#F4EFE4">CINDARA</text><text x="715" y="720" text-anchor="middle" font-family="monospace" font-size="10" fill="#8E87A8">of the Long Burn</text><text x="40" y="856" font-family="&#39;Chakra Petch&#39;,sans-serif" font-size="20" font-weight="700" letter-spacing="3" fill="#2A7FB8">WATER</text><text x="40" y="878" font-family="monospace" font-size="11" fill="#6E6690">ARCANE · RING</text><line x1="40" y1="958" x2="820" y2="958" stroke="#241F38" stroke-width="1"></line><g transform="translate(231,768)"><g id="water-marisel"><polygon points="64,6 114,35 114,93 64,122 14,93 14,35" fill="#2A7FB8"></polygon><polygon points="64,6 114,35 114,93 64,122 14,93 14,35" fill="url(#inner-water)"></polygon><polygon points="64,6 114,35 114,93 64,122 14,93 14,35" fill="none" stroke="#4FC3D6" stroke-width="4"></polygon><circle cx="64" cy="58" r="26" fill="#F2EDDD"></circle><path d="M45 50 q19 -7 38 0" stroke="#2A7FB8" stroke-width="4" fill="none" stroke-linecap="round" opacity=".5"></path><path d="M49 64 q15 -6 30 0" stroke="#2A7FB8" stroke-width="4" fill="none" stroke-linecap="round" opacity=".32"></path><path d="M56 78 q8 -4 16 0" stroke="#2A7FB8" stroke-width="3" fill="none" stroke-linecap="round" opacity=".22"></path><circle cx="94" cy="84" r="13" fill="#164A6E" opacity=".85"></circle><path d="M94 77 l5.5 8 a5.5 5.5 0 1 1 -11 0 z" fill="#4FC3D6"></path></g></g><text x="295" y="916" text-anchor="middle" font-family="&#39;Chakra Petch&#39;,sans-serif" font-size="15" font-weight="600" fill="#F4EFE4">MARISEL</text><text x="295" y="934" text-anchor="middle" font-family="monospace" font-size="10" fill="#8E87A8">the Deep Remembering</text><g transform="translate(441,768)"><g id="water-tidewarden-coll"><polygon points="64,6 114,35 114,93 64,122 14,93 14,35" fill="#2A7FB8"></polygon><polygon points="64,6 114,35 114,93 64,122 14,93 14,35" fill="url(#inner-water)"></polygon><polygon points="64,6 114,35 114,93 64,122 14,93 14,35" fill="none" stroke="#4FC3D6" stroke-width="4"></polygon><path d="M40 32 h48 v30 q0 23 -24 32 q-24 -9 -24 -32 z" fill="#F2EDDD"></path><path d="M46 58 q9 -11 18 0 q9 11 18 0" stroke="#4FC3D6" stroke-width="5" fill="none" stroke-linecap="round"></path><circle cx="94" cy="84" r="13" fill="#164A6E" opacity=".85"></circle><path d="M94 77 l5.5 8 a5.5 5.5 0 1 1 -11 0 z" fill="#4FC3D6"></path></g></g><text x="505" y="916" text-anchor="middle" font-family="&#39;Chakra Petch&#39;,sans-serif" font-size="15" font-weight="600" fill="#F4EFE4">TIDEWARDEN COLL</text><text x="505" y="934" text-anchor="middle" font-family="monospace" font-size="10" fill="#8E87A8">the Bulwark</text><g transform="translate(651,768)"><g id="water-nix"><polygon points="64,6 114,35 114,93 64,122 14,93 14,35" fill="#2A7FB8"></polygon><polygon points="64,6 114,35 114,93 64,122 14,93 14,35" fill="url(#inner-water)"></polygon><polygon points="64,6 114,35 114,93 64,122 14,93 14,35" fill="none" stroke="#4FC3D6" stroke-width="4"></polygon><circle cx="64" cy="62" r="10" fill="none" stroke="#F2EDDD" stroke-width="6"></circle><circle cx="64" cy="62" r="23" fill="none" stroke="#F2EDDD" stroke-width="4" opacity=".65"></circle><line x1="42" y1="86" x2="86" y2="40" stroke="#4FC3D6" stroke-width="4" stroke-linecap="round"></line><circle cx="94" cy="84" r="13" fill="#164A6E" opacity=".85"></circle><path d="M94 77 l5.5 8 a5.5 5.5 0 1 1 -11 0 z" fill="#4FC3D6"></path></g></g><text x="715" y="916" text-anchor="middle" font-family="&#39;Chakra Petch&#39;,sans-serif" font-size="15" font-weight="600" fill="#F4EFE4">NIX</text><text x="715" y="934" text-anchor="middle" font-family="monospace" font-size="10" fill="#8E87A8">of the Still Pool</text><text x="40" y="1070" font-family="&#39;Chakra Petch&#39;,sans-serif" font-size="20" font-weight="700" letter-spacing="3" fill="#F2C744">LIGHT</text><text x="40" y="1092" font-family="monospace" font-size="11" fill="#6E6690">ARCANE · RING</text><line x1="40" y1="1172" x2="820" y2="1172" stroke="#241F38" stroke-width="1"></line><g transform="translate(231,982)"><g id="light-seraphel"><polygon points="64,6 114,35 114,93 64,122 14,93 14,35" fill="#F2C744"></polygon><polygon points="64,6 114,35 114,93 64,122 14,93 14,35" fill="url(#inner-light)"></polygon><polygon points="64,6 114,35 114,93 64,122 14,93 14,35" fill="none" stroke="#8A6A15" stroke-width="4"></polygon><circle cx="64" cy="34" r="12" fill="none" stroke="#8A6A15" stroke-width="4"></circle><rect x="60" y="46" width="8" height="44" fill="#14121F"></rect><rect x="44" y="60" width="40" height="7" rx="2" fill="#14121F"></rect><circle cx="94" cy="84" r="13" fill="#8A6A15" opacity=".85"></circle><circle cx="94" cy="84" r="3.6" fill="#8A6A15"></circle><rect x="85" y="83" width="18" height="2" fill="#8A6A15"></rect><rect x="93" y="75" width="2" height="18" fill="#8A6A15"></rect></g></g><text x="295" y="1130" text-anchor="middle" font-family="&#39;Chakra Petch&#39;,sans-serif" font-size="15" font-weight="600" fill="#F4EFE4">SERAPHEL</text><text x="295" y="1148" text-anchor="middle" font-family="monospace" font-size="10" fill="#8E87A8">the Verdict</text><g transform="translate(441,982)"><g id="light-lucen"><polygon points="64,6 114,35 114,93 64,122 14,93 14,35" fill="#F2C744"></polygon><polygon points="64,6 114,35 114,93 64,122 14,93 14,35" fill="url(#inner-light)"></polygon><polygon points="64,6 114,35 114,93 64,122 14,93 14,35" fill="none" stroke="#8A6A15" stroke-width="4"></polygon><polygon points="64,32 85,70 43,70" fill="#14121F"></polygon><path d="M64 78 v14 M50 76 l-10 13 M78 76 l10 13" stroke="#8A6A15" stroke-width="5" fill="none" stroke-linecap="round"></path><circle cx="94" cy="84" r="13" fill="#8A6A15" opacity=".85"></circle><circle cx="94" cy="84" r="3.6" fill="#8A6A15"></circle><rect x="85" y="83" width="18" height="2" fill="#8A6A15"></rect><rect x="93" y="75" width="2" height="18" fill="#8A6A15"></rect></g></g><text x="505" y="1130" text-anchor="middle" font-family="&#39;Chakra Petch&#39;,sans-serif" font-size="15" font-weight="600" fill="#F4EFE4">LUCEN</text><text x="505" y="1148" text-anchor="middle" font-family="monospace" font-size="10" fill="#8E87A8">the Unhidden</text><g transform="translate(651,982)"><g id="light-auriel-dawnkeep"><polygon points="64,6 114,35 114,93 64,122 14,93 14,35" fill="#F2C744"></polygon><polygon points="64,6 114,35 114,93 64,122 14,93 14,35" fill="url(#inner-light)"></polygon><polygon points="64,6 114,35 114,93 64,122 14,93 14,35" fill="none" stroke="#8A6A15" stroke-width="4"></polygon><path d="M64 28 q24 6 24 26 q0 26 -24 34 q-24 -8 -24 -34 q0 -20 24 -26 z" fill="#14121F"></path><path d="M59 38 a5 5 0 0 1 10 0" stroke="#F2C744" stroke-width="3" fill="none"></path><rect x="54" y="42" width="20" height="4" rx="1" fill="#F2C744"></rect><polygon points="57,48 71,48 74,66 54,66" fill="#F2C744"></polygon><rect x="52" y="68" width="24" height="4" rx="1" fill="#F2C744"></rect><path d="M46 80 h36" stroke="#F2C744" stroke-width="3" fill="none" stroke-linecap="round"></path><circle cx="94" cy="84" r="13" fill="#8A6A15" opacity=".85"></circle><circle cx="94" cy="84" r="3.6" fill="#8A6A15"></circle><rect x="85" y="83" width="18" height="2" fill="#8A6A15"></rect><rect x="93" y="75" width="2" height="18" fill="#8A6A15"></rect></g></g><text x="715" y="1130" text-anchor="middle" font-family="&#39;Chakra Petch&#39;,sans-serif" font-size="15" font-weight="600" fill="#F4EFE4">AURIEL DAWNKEEP</text><text x="715" y="1148" text-anchor="middle" font-family="monospace" font-size="10" fill="#8E87A8">the Last Lantern</text><text x="40" y="1284" font-family="&#39;Chakra Petch&#39;,sans-serif" font-size="20" font-weight="700" letter-spacing="3" fill="#7A3FA0">DARK</text><text x="40" y="1306" font-family="monospace" font-size="11" fill="#6E6690">ARCANE · RING</text><line x1="40" y1="1386" x2="820" y2="1386" stroke="#241F38" stroke-width="1"></line><g transform="translate(231,1196)"><g id="dark-nyxara"><polygon points="64,6 114,35 114,93 64,122 14,93 14,35" fill="#7A3FA0"></polygon><polygon points="64,6 114,35 114,93 64,122 14,93 14,35" fill="url(#inner-dark)"></polygon><polygon points="64,6 114,35 114,93 64,122 14,93 14,35" fill="none" stroke="#C64BB0" stroke-width="4"></polygon><path d="M38 32 q26 -9 52 0 v34 q-13 7 -13 13 q-13 -7 -26 0 q0 -6 -13 -13 z" fill="#F2EDDD"></path><path d="M51 30 v42 M64 27 v48 M77 30 v42" stroke="#7A3FA0" stroke-width="2.5" fill="none" opacity=".4"></path><polygon points="64,82 73,90 64,97 55,90" fill="#C64BB0"></polygon><circle cx="94" cy="84" r="13" fill="#42215B" opacity=".85"></circle><circle cx="94" cy="84" r="6" fill="#C64BB0"></circle><circle cx="97.5" cy="82" r="5.4" fill="#42215B"></circle></g></g><text x="295" y="1344" text-anchor="middle" font-family="&#39;Chakra Petch&#39;,sans-serif" font-size="15" font-weight="600" fill="#F4EFE4">NYXARA</text><text x="295" y="1362" text-anchor="middle" font-family="monospace" font-size="10" fill="#8E87A8">the Kind Veil</text><g transform="translate(441,1196)"><g id="dark-umbriel"><polygon points="64,6 114,35 114,93 64,122 14,93 14,35" fill="#7A3FA0"></polygon><polygon points="64,6 114,35 114,93 64,122 14,93 14,35" fill="url(#inner-dark)"></polygon><polygon points="64,6 114,35 114,93 64,122 14,93 14,35" fill="none" stroke="#C64BB0" stroke-width="4"></polygon><polygon points="60,26 74,44 64,60 78,78 56,98 66,66 52,50" fill="#F2EDDD"></polygon><path d="M44 44 l8 6 M84 62 l8 -5" stroke="#C64BB0" stroke-width="4" fill="none" stroke-linecap="round"></path><circle cx="94" cy="84" r="13" fill="#42215B" opacity=".85"></circle><circle cx="94" cy="84" r="6" fill="#C64BB0"></circle><circle cx="97.5" cy="82" r="5.4" fill="#42215B"></circle></g></g><text x="505" y="1344" text-anchor="middle" font-family="&#39;Chakra Petch&#39;,sans-serif" font-size="15" font-weight="600" fill="#F4EFE4">UMBRIEL</text><text x="505" y="1362" text-anchor="middle" font-family="monospace" font-size="10" fill="#8E87A8">the Undoing</text><g transform="translate(651,1196)"><g id="dark-corvane"><polygon points="64,6 114,35 114,93 64,122 14,93 14,35" fill="#7A3FA0"></polygon><polygon points="64,6 114,35 114,93 64,122 14,93 14,35" fill="url(#inner-dark)"></polygon><polygon points="64,6 114,35 114,93 64,122 14,93 14,35" fill="none" stroke="#C64BB0" stroke-width="4"></polygon><path d="M58 92 V50 a11 11 0 0 1 22 0" stroke="#F2EDDD" stroke-width="8" fill="none" stroke-linecap="round"></path><circle cx="86" cy="68" r="9" fill="#C64BB0"></circle><polygon points="38,50 54,58 38,66" fill="#C64BB0"></polygon><circle cx="94" cy="84" r="13" fill="#42215B" opacity=".85"></circle><circle cx="94" cy="84" r="6" fill="#C64BB0"></circle><circle cx="97.5" cy="82" r="5.4" fill="#42215B"></circle></g></g><text x="715" y="1344" text-anchor="middle" font-family="&#39;Chakra Petch&#39;,sans-serif" font-size="15" font-weight="600" fill="#F4EFE4">CORVANE</text><text x="715" y="1362" text-anchor="middle" font-family="monospace" font-size="10" fill="#8E87A8">Shepherd of Endings</text><text x="40" y="1498" font-family="&#39;Chakra Petch&#39;,sans-serif" font-size="20" font-weight="700" letter-spacing="3" fill="#C0313A">SLASH</text><text x="40" y="1520" font-family="monospace" font-size="11" fill="#6E6690">MARTIAL · TRIANGLE</text><line x1="40" y1="1600" x2="820" y2="1600" stroke="#241F38" stroke-width="1"></line><g transform="translate(231,1410)"><g id="slash-kaellis"><polygon points="64,6 114,35 114,93 64,122 14,93 14,35" fill="#C0313A"></polygon><polygon points="64,6 114,35 114,93 64,122 14,93 14,35" fill="url(#inner-slash)"></polygon><polygon points="64,6 114,35 114,93 64,122 14,93 14,35" fill="none" stroke="#F06A72" stroke-width="4"></polygon><rect x="60" y="28" width="8" height="52" fill="#F2EDDD"></rect><rect x="47" y="44" width="34" height="6" rx="2" fill="#F2EDDD"></rect><path d="M36 86 q28 -15 56 0" stroke="#F06A72" stroke-width="6" fill="none" stroke-linecap="round"></path><circle cx="94" cy="84" r="13" fill="#77161C" opacity=".85"></circle><rect x="86" y="83" width="16" height="2.8" rx="1.4" transform="rotate(-35 94 84)" fill="#F06A72"></rect></g></g><text x="295" y="1558" text-anchor="middle" font-family="&#39;Chakra Petch&#39;,sans-serif" font-size="15" font-weight="600" fill="#F4EFE4">KAELLIS</text><text x="295" y="1576" text-anchor="middle" font-family="monospace" font-size="10" fill="#8E87A8">the Duelist Immaculate</text><g transform="translate(441,1410)"><g id="slash-reyna"><polygon points="64,6 114,35 114,93 64,122 14,93 14,35" fill="#C0313A"></polygon><polygon points="64,6 114,35 114,93 64,122 14,93 14,35" fill="url(#inner-slash)"></polygon><polygon points="64,6 114,35 114,93 64,122 14,93 14,35" fill="none" stroke="#F06A72" stroke-width="4"></polygon><path d="M40 38 q35 15 47 48" stroke="#F2EDDD" stroke-width="8" fill="none" stroke-linecap="round"></path><path d="M88 38 q-35 15 -47 48" stroke="#F06A72" stroke-width="8" fill="none" stroke-linecap="round"></path><circle cx="94" cy="84" r="13" fill="#77161C" opacity=".85"></circle><rect x="86" y="83" width="16" height="2.8" rx="1.4" transform="rotate(-35 94 84)" fill="#F06A72"></rect></g></g><text x="505" y="1558" text-anchor="middle" font-family="&#39;Chakra Petch&#39;,sans-serif" font-size="15" font-weight="600" fill="#F4EFE4">REYNA TWO-RIVERS</text><text x="505" y="1576" text-anchor="middle" font-family="monospace" font-size="10" fill="#8E87A8">the Current</text><g transform="translate(651,1410)"><g id="slash-grieve"><polygon points="64,6 114,35 114,93 64,122 14,93 14,35" fill="#C0313A"></polygon><polygon points="64,6 114,35 114,93 64,122 14,93 14,35" fill="url(#inner-slash)"></polygon><polygon points="64,6 114,35 114,93 64,122 14,93 14,35" fill="none" stroke="#F06A72" stroke-width="4"></polygon><path d="M34 52 q30 -20 58 2" stroke="#F2EDDD" stroke-width="9" fill="none" stroke-linecap="round"></path><line x1="46" y1="54" x2="72" y2="92" stroke="#F06A72" stroke-width="6" stroke-linecap="round"></line><circle cx="94" cy="84" r="13" fill="#77161C" opacity=".85"></circle><rect x="86" y="83" width="16" height="2.8" rx="1.4" transform="rotate(-35 94 84)" fill="#F06A72"></rect></g></g><text x="715" y="1558" text-anchor="middle" font-family="&#39;Chakra Petch&#39;,sans-serif" font-size="15" font-weight="600" fill="#F4EFE4">GRIEVE</text><text x="715" y="1576" text-anchor="middle" font-family="monospace" font-size="10" fill="#8E87A8">the Wide Reaper</text><text x="40" y="1712" font-family="&#39;Chakra Petch&#39;,sans-serif" font-size="20" font-weight="700" letter-spacing="3" fill="#3B5BD1">PIERCE</text><text x="40" y="1734" font-family="monospace" font-size="11" fill="#6E6690">MARTIAL · TRIANGLE</text><line x1="40" y1="1814" x2="820" y2="1814" stroke="#241F38" stroke-width="1"></line><g transform="translate(231,1624)"><g id="pierce-vantric"><polygon points="64,6 114,35 114,93 64,122 14,93 14,35" fill="#3B5BD1"></polygon><polygon points="64,6 114,35 114,93 64,122 14,93 14,35" fill="url(#inner-pierce)"></polygon><polygon points="64,6 114,35 114,93 64,122 14,93 14,35" fill="none" stroke="#7B93F0" stroke-width="4"></polygon><line x1="38" y1="92" x2="78" y2="48" stroke="#F2EDDD" stroke-width="7" stroke-linecap="round"></line><polygon points="88,32 90,54 70,46" fill="#7B93F0"></polygon><circle cx="94" cy="84" r="13" fill="#1F3280" opacity=".85"></circle><polygon points="94,77 98,91 90,91" fill="#7B93F0"></polygon></g></g><text x="295" y="1772" text-anchor="middle" font-family="&#39;Chakra Petch&#39;,sans-serif" font-size="15" font-weight="600" fill="#F4EFE4">VANTRIC</text><text x="295" y="1790" text-anchor="middle" font-family="monospace" font-size="10" fill="#8E87A8">the Threading Spear</text><g transform="translate(441,1624)"><g id="pierce-silka"><polygon points="64,6 114,35 114,93 64,122 14,93 14,35" fill="#3B5BD1"></polygon><polygon points="64,6 114,35 114,93 64,122 14,93 14,35" fill="url(#inner-pierce)"></polygon><polygon points="64,6 114,35 114,93 64,122 14,93 14,35" fill="none" stroke="#7B93F0" stroke-width="4"></polygon><path d="M48 92 L44 40 M48 92 L62 36 M48 92 L78 44 M48 92 L90 58" stroke="#F2EDDD" stroke-width="5" fill="none" stroke-linecap="round"></path><circle cx="44" cy="38" r="4" fill="#7B93F0"></circle><circle cx="63" cy="34" r="4" fill="#7B93F0"></circle><circle cx="80" cy="42" r="4" fill="#7B93F0"></circle><circle cx="92" cy="57" r="4" fill="#7B93F0"></circle><circle cx="94" cy="84" r="13" fill="#1F3280" opacity=".85"></circle><polygon points="94,77 98,91 90,91" fill="#7B93F0"></polygon></g></g><text x="505" y="1772" text-anchor="middle" font-family="&#39;Chakra Petch&#39;,sans-serif" font-size="15" font-weight="600" fill="#F4EFE4">SILKA PINQUICK</text><text x="505" y="1790" text-anchor="middle" font-family="monospace" font-size="10" fill="#8E87A8">the Quick</text><g transform="translate(651,1624)"><g id="pierce-aiguille"><polygon points="64,6 114,35 114,93 64,122 14,93 14,35" fill="#3B5BD1"></polygon><polygon points="64,6 114,35 114,93 64,122 14,93 14,35" fill="url(#inner-pierce)"></polygon><polygon points="64,6 114,35 114,93 64,122 14,93 14,35" fill="none" stroke="#7B93F0" stroke-width="4"></polygon><line x1="32" y1="94" x2="86" y2="40" stroke="#F2EDDD" stroke-width="4" stroke-linecap="round"></line><circle cx="44" cy="82" r="8" fill="none" stroke="#F2EDDD" stroke-width="4"></circle><circle cx="91" cy="35" r="5" fill="#7B93F0"></circle><circle cx="94" cy="84" r="13" fill="#1F3280" opacity=".85"></circle><polygon points="94,77 98,91 90,91" fill="#7B93F0"></polygon></g></g><text x="715" y="1772" text-anchor="middle" font-family="&#39;Chakra Petch&#39;,sans-serif" font-size="15" font-weight="600" fill="#F4EFE4">LORD AIGUILLE</text><text x="715" y="1790" text-anchor="middle" font-family="monospace" font-size="10" fill="#8E87A8">the Long Point</text><text x="40" y="1926" font-family="&#39;Chakra Petch&#39;,sans-serif" font-size="20" font-weight="700" letter-spacing="3" fill="#B5732E">CRUSH</text><text x="40" y="1948" font-family="monospace" font-size="11" fill="#6E6690">MARTIAL · TRIANGLE</text><line x1="40" y1="2028" x2="820" y2="2028" stroke="#241F38" stroke-width="1"></line><g transform="translate(231,1838)"><g id="crush-boldrek"><polygon points="64,6 114,35 114,93 64,122 14,93 14,35" fill="#B5732E"></polygon><polygon points="64,6 114,35 114,93 64,122 14,93 14,35" fill="url(#inner-crush)"></polygon><polygon points="64,6 114,35 114,93 64,122 14,93 14,35" fill="none" stroke="#E0A15A" stroke-width="4"></polygon><circle cx="70" cy="44" r="18" fill="#14121F"></circle><line x1="58" y1="56" x2="42" y2="90" stroke="#14121F" stroke-width="8" stroke-linecap="round"></line><rect x="68" y="74" width="13" height="13" rx="2" fill="#E0A15A"></rect><rect x="84" y="82" width="9" height="9" rx="2" fill="#E0A15A"></rect><circle cx="94" cy="84" r="13" fill="#6E4317" opacity=".85"></circle><rect x="88" y="78" width="12" height="5" rx="1.5" fill="#E0A15A"></rect><rect x="86" y="86" width="16" height="2.4" rx="1.2" fill="#E0A15A"></rect></g></g><text x="295" y="1986" text-anchor="middle" font-family="&#39;Chakra Petch&#39;,sans-serif" font-size="15" font-weight="600" fill="#F4EFE4">BOLDREK</text><text x="295" y="2004" text-anchor="middle" font-family="monospace" font-size="10" fill="#8E87A8">the Avalanche</text><g transform="translate(441,1838)"><g id="crush-hettamar"><polygon points="64,6 114,35 114,93 64,122 14,93 14,35" fill="#B5732E"></polygon><polygon points="64,6 114,35 114,93 64,122 14,93 14,35" fill="url(#inner-crush)"></polygon><polygon points="64,6 114,35 114,93 64,122 14,93 14,35" fill="none" stroke="#E0A15A" stroke-width="4"></polygon><rect x="46" y="26" width="36" height="18" rx="3" fill="#14121F"></rect><rect x="60" y="44" width="8" height="28" fill="#14121F"></rect><path d="M36 84 q28 -16 56 0" stroke="#E0A15A" stroke-width="6" fill="none" stroke-linecap="round"></path><path d="M44 94 q20 -9 40 0" stroke="#E0A15A" stroke-width="3" fill="none" opacity=".7" stroke-linecap="round"></path><circle cx="94" cy="84" r="13" fill="#6E4317" opacity=".85"></circle><rect x="88" y="78" width="12" height="5" rx="1.5" fill="#E0A15A"></rect><rect x="86" y="86" width="16" height="2.4" rx="1.2" fill="#E0A15A"></rect></g></g><text x="505" y="1986" text-anchor="middle" font-family="&#39;Chakra Petch&#39;,sans-serif" font-size="15" font-weight="600" fill="#F4EFE4">HETTAMAR IRONFALL</text><text x="505" y="2004" text-anchor="middle" font-family="monospace" font-size="10" fill="#8E87A8">End of Argument</text><g transform="translate(651,1838)"><g id="crush-mauless"><polygon points="64,6 114,35 114,93 64,122 14,93 14,35" fill="#B5732E"></polygon><polygon points="64,6 114,35 114,93 64,122 14,93 14,35" fill="url(#inner-crush)"></polygon><polygon points="64,6 114,35 114,93 64,122 14,93 14,35" fill="none" stroke="#E0A15A" stroke-width="4"></polygon><polygon points="64,26 88,40 82,80 64,94 46,80 40,40" fill="#14121F"></polygon><polygon points="86,54 96,48 90,64" fill="#E0A15A"></polygon><polygon points="42,54 32,48 38,64" fill="#E0A15A"></polygon><circle cx="94" cy="84" r="13" fill="#6E4317" opacity=".85"></circle><rect x="88" y="78" width="12" height="5" rx="1.5" fill="#E0A15A"></rect><rect x="86" y="86" width="16" height="2.4" rx="1.2" fill="#E0A15A"></rect></g></g><text x="715" y="1986" text-anchor="middle" font-family="&#39;Chakra Petch&#39;,sans-serif" font-size="15" font-weight="600" fill="#F4EFE4">MAULESS</text><text x="715" y="2004" text-anchor="middle" font-family="monospace" font-size="10" fill="#8E87A8">the Undenied</text>
</svg>