<svg xmlns="http://www.w3.org/2000/svg" viewBox="0 0 128 128" width="128" height="128" role="img" aria-label="Boldrek — crush emblem">
  <title>Boldrek · CRUSH</title>
  <defs><radialGradient id="inner-crush" cx="50%" cy="34%" r="72%"><stop offset="55%" stop-color="#6E4317" stop-opacity="0"></stop><stop offset="100%" stop-color="#6E4317" stop-opacity=".55"></stop></radialGradient></defs>
  <g id="crush-boldrek"><polygon points="64,6 114,35 114,93 64,122 14,93 14,35" fill="#B5732E"></polygon><polygon points="64,6 114,35 114,93 64,122 14,93 14,35" fill="url(#inner-crush)"></polygon><polygon points="64,6 114,35 114,93 64,122 14,93 14,35" fill="none" stroke="#E0A15A" stroke-width="4"></polygon><circle cx="70" cy="44" r="18" fill="#14121F"></circle><line x1="58" y1="56" x2="42" y2="90" stroke="#14121F" stroke-width="8" stroke-linecap="round"></line><rect x="68" y="74" width="13" height="13" rx="2" fill="#E0A15A"></rect><rect x="84" y="82" width="9" height="9" rx="2" fill="#E0A15A"></rect><circle cx="94" cy="84" r="13" fill="#6E4317" opacity=".85"></circle><rect x="88" y="78" width="12" height="5" rx="1.5" fill="#E0A15A"></rect><rect x="86" y="86" width="16" height="2.4" rx="1.2" fill="#E0A15A"></rect></g>
</svg>