<svg xmlns="http://www.w3.org/2000/svg" viewBox="0 0 128 128" width="128" height="128" role="img" aria-label="Pyrrhic — fire emblem">
  <title>Pyrrhic · FIRE</title>
  <defs><radialGradient id="inner-fire" cx="50%" cy="34%" r="72%"><stop offset="55%" stop-color="#8C2A12" stop-opacity="0"></stop><stop offset="100%" stop-color="#8C2A12" stop-opacity=".55"></stop></radialGradient></defs>
  <g id="fire-pyrrhic"><polygon points="64,6 114,35 114,93 64,122 14,93 14,35" fill="#E8552B"></polygon><polygon points="64,6 114,35 114,93 64,122 14,93 14,35" fill="url(#inner-fire)"></polygon><polygon points="64,6 114,35 114,93 64,122 14,93 14,35" fill="none" stroke="#FFB347" stroke-width="4"></polygon><polygon points="64,26 85,44 78,90 50,90 43,44" fill="#14121F"></polygon><path d="M64 32 v18 M56 56 l7 10 -6 12 M74 58 l-6 10 6 12" stroke="#FFB347" stroke-width="4" fill="none" stroke-linecap="round"></path><circle cx="94" cy="84" r="13" fill="#8C2A12" opacity=".85"></circle><polygon points="94,78 100,90 88,90" fill="#FFB347"></polygon></g>
</svg>